<svg width="862" height="1000" viewBox="0 0 862 1000" fill="none" xmlns="http://www.w3.org/2000/svg">
<g clip-path="url(#clip0_382:1040)">
<path d="M31.769 519.774C26.1022 519.897 21.387 515.587 21.2572 510.127L20.0027 460.989C19.873 455.53 24.3718 451.014 30.0387 450.891L112.879 449.003C118.545 448.879 123.261 453.19 123.39 458.608L124.645 507.787C124.775 513.247 120.276 517.762 114.609 517.927L31.769 519.774Z" fill="white"/>
<path d="M108.169 527.656L73.2698 528.428L74.0943 561.998L108.993 561.226L108.169 527.656Z" fill="white"/>
<path d="M109.094 565.465L74.1952 566.243L75.0268 599.813L109.926 599.034L109.094 565.465Z" fill="white"/>
<path d="M110.079 603.263L75.1795 604.052L76.0206 637.58L110.92 636.792L110.079 603.263Z" fill="white"/>
<path d="M70.4127 528.474L35.5136 529.258L36.346 562.828L71.2451 562.043L70.4127 528.474Z" fill="white"/>
<path d="M71.342 566.322L36.4429 567.114L37.2876 600.642L72.1867 599.85L71.342 566.322Z" fill="white"/>
<path d="M72.318 604.13L37.4189 604.899L38.2398 638.468L73.1389 637.7L72.318 604.13Z" fill="white"/>
<path d="M103.26 330L68.3607 330.778L69.1923 364.348L104.091 363.569L103.26 330Z" fill="white"/>
<path d="M104.232 367.801L69.3327 368.586L70.1703 402.114L105.069 401.329L104.232 367.801Z" fill="white"/>
<path d="M105.114 405.654L70.2149 406.436L71.05 440.005L105.949 439.224L105.114 405.654Z" fill="white"/>
<path d="M65.5169 330.853L30.6178 331.641L31.4527 365.17L66.3518 364.382L65.5169 330.853Z" fill="white"/>
<path d="M66.4695 368.705L31.5704 369.49L32.408 403.018L67.3071 402.233L66.4695 368.705Z" fill="white"/>
<path d="M67.3722 406.513L32.4731 407.302L33.3143 440.83L68.2134 440.042L67.3722 406.513Z" fill="white"/>
<path d="M151.329 743.861C156.217 776.435 162.108 808.902 169.263 841.213C174.984 865.913 181.241 890.571 190.059 914.787L206.869 913.617C199.004 888.884 193.152 863.362 188.285 837.653C182.355 805.479 177.426 773.068 173.344 740.532L151.329 743.861Z" fill="white"/>
<path fill-rule="evenodd" clip-rule="evenodd" d="M279.791 888.531C284.146 862.143 286.498 835.565 288 809.034C285.998 822.181 283.795 835.28 281.142 848.427C278.739 861.526 276.036 874.53 272.933 887.392C269.779 900.254 266.375 913.021 261.97 925.408C259.767 931.578 257.315 937.653 254.461 943.396C251.608 949.138 248.254 954.644 244.25 958.678C242.297 960.671 240.095 962.095 238.343 962.522C236.541 962.949 235.139 962.855 233.187 961.81C229.282 959.77 225.278 954.786 222.124 949.566C215.717 938.887 211.111 926.547 207.057 914.207L206.975 913.952L206.869 913.617L190.059 914.787C190.576 916.209 191.103 917.629 191.639 919.048C196.595 931.815 201.901 944.487 210.01 956.59C212.062 959.627 214.315 962.57 217.068 965.417C219.821 968.218 222.975 970.97 227.33 973.011C231.535 975.147 237.642 975.716 242.498 973.96C247.403 972.252 250.807 969.262 253.46 966.319C258.716 960.292 261.82 953.837 264.573 947.43C267.276 941.023 269.429 934.52 271.281 927.971C274.935 914.919 277.688 901.725 279.791 888.531ZM173.344 740.532C170.844 720.61 168.661 700.642 166.76 680.653C161.604 628.019 157.8 575.195 155.597 522.324C152.944 469.453 151.843 416.534 152.043 363.663C152.025 344.835 152.255 326.008 152.726 307.189L130.276 305.691C126.827 378.23 127.588 450.863 130.619 523.321C134.429 596.982 140.348 670.69 151.329 743.861L173.344 740.532ZM160.477 81.0007L174.169 84.8357C177.016 73.1803 180.411 61.6771 185.282 51.1337C187.885 45.4858 191.188 39.9329 195.193 36.5158C199.248 33.0986 202.902 32.9562 207.808 36.3259C212.463 39.6482 216.417 44.9638 219.871 50.3743C223.325 55.8797 226.379 61.7174 229.182 67.6975C234.739 79.705 239.394 92.1872 243.599 104.812C247.904 117.436 251.758 130.203 255.312 143.065C250.607 116.867 245.051 90.7159 235.64 65.277C233.237 58.9172 230.584 52.605 227.23 46.4825C223.826 40.4075 220.122 34.2376 213.865 29.1119C210.711 26.6439 206.556 24.2234 201.45 24.0336C196.344 23.7014 191.639 25.8846 188.285 28.3525C181.527 33.4783 177.623 39.7905 174.169 46.0079C168.085 57.4152 164.019 69.1739 160.477 81.0007Z" fill="white"/>
<path d="M643.722 206.689L552.899 205.691L546.74 761.086L637.614 762.084L861.669 486.907L643.722 206.689Z" fill="white" stroke="white" stroke-miterlimit="10"/>
<path d="M515.247 201L273.267 202.647L430.031 569.101V569.051L434.387 578.682L485.757 551.384L375.056 292.526L515.247 291.528V201Z" fill="white"/>
<path d="M343.462 401.37L343.212 401.719L339.507 393.535L288.387 420.683L399.088 679.591L261 680.539V771.067L500.877 769.42L343.462 401.37Z" fill="white"/>
<path d="M261 210.533V357.404L335.351 530.475L374.755 475.33L261 210.533Z" fill="white"/>
<path d="M515.246 620.004L433.885 430.664L394.531 485.909L515.246 766.875V620.004Z" fill="white"/>
<g clip-path="url(#clip1_382:1040)">
<path d="M164.566 102.106C149.639 116.864 145.58 129.942 142.183 157.537L170.626 162.6C174.475 135.705 173.344 122.339 164.566 102.106Z" fill="white"/>
<path d="M142.28 163.095L170.713 167.602L155.814 269.604L131.838 265.575L142.28 163.095Z" fill="white"/>
<path d="M133.246 218.849L127.85 260.085L104.788 276.61L109.628 235.384L133.246 218.849Z" fill="white"/>
<path d="M166.154 224.946L160.212 266.747L178.942 288.659L184.376 249.647L166.154 224.946Z" fill="white"/>
<path d="M164.566 102.106C149.639 116.864 145.58 129.942 142.183 157.537L170.626 162.6C174.475 135.705 173.344 122.339 164.566 102.106Z" stroke="white" stroke-width="0.5"/>
<path d="M142.28 163.095L170.713 167.602L155.814 269.604L131.838 265.575L142.28 163.095Z" stroke="white" stroke-width="0.5"/>
<path d="M133.246 218.849L127.85 260.085L104.788 276.61L109.628 235.384L133.246 218.849Z" stroke="white" stroke-width="0.5"/>
<path d="M166.154 224.946L160.212 266.747L178.942 288.659L184.376 249.647L166.154 224.946Z" stroke="white" stroke-width="0.5"/>
</g>
</g>
<defs>
<clipPath id="clip0_382:1040">
<rect width="862" height="1000" fill="white"/>
</clipPath>
<clipPath id="clip1_382:1040">
<rect width="82.2704" height="189" fill="white" transform="translate(100.63 102.11) rotate(-1)"/>
</clipPath>
</defs>
</svg>
