<?xml version="1.0" encoding="utf-8"?>
<svg id="master-artboard" viewBox="0 0 1400 980" version="1.1" xmlns="http://www.w3.org/2000/svg" x="0px" y="0px" style="enable-background:new 0 0 1400 980;" width="1400px" height="980px">

<metadata><!--?xpacket begin="﻿" id="W5M0MpCehiHzreSzNTczkc9d"?-->

                                                                                                    
                                                                                                    
                                                                                                    
                                                                                                    
                                                                                                    
                                                                                                    
                                                                                                    
                                                                                                    
                                                                                                    
                                                                                                    
                                                                                                    
                                                                                                    
                                                                                                    
                                                                                                    
                                                                                                    
                                                                                                    
                                                                                                    
                                                                                                    
                                                                                                    
                                                                                                    
                           
<!--?xpacket end="w"?-->
	</metadata>


<g transform="matrix(0.9999999999999999, 0, 0, 0.9999999999999999, -1.1368683772161603e-13, 22.133815045774014)">
		<path d="M 624.400024 452.200012 H 775.600021 V 502.600014 H 624.400024 V 452.200012 Z" class="st2" style="fill: rgb(151, 218, 248);"/>
		<path d="M 685 448.100006 H 714.9 V 512.100006 H 685 V 448.100006 Z" class="st3" style="fill: rgb(255, 228, 124);"/>
		<path d="M 675.799988 430.299988 H 724.099987 V 440.699987 H 675.799988 V 430.299988 Z" class="st4" style="fill: rgb(252, 187, 105);"/>
		<path d="M 698.200012 512.099976 H 701.800012 V 529.999975 H 698.200012 V 512.099976 Z" class="st2" style="fill: rgb(151, 218, 248);"/>
		<path class="st4" d="M726.3,549.7c0.2-1.2,0.2-2.4,0.2-3.6c0-14.7-11.9-26.6-26.6-26.6s-26.6,11.9-26.6,26.6&#10;&#9;&#9;&#9;c0,1.2,0.1,2.4,0.2,3.6H726.3z" style="fill: rgb(252, 187, 105);"/>
		<path d="M 712.2 476.799988 A 12.2 12.2 0 0 1 700 488.999988 A 12.2 12.2 0 0 1 687.8 476.799988 A 12.2 12.2 0 0 1 700 464.599988 A 12.2 12.2 0 0 1 712.2 476.799988 Z" class="st4" style="fill: rgb(252, 187, 105);"/>
		<path d="M 698.599976 440.600006 H 701.499976 V 448.100006 H 698.599976 V 440.600006 Z" class="st2" style="fill: rgb(151, 218, 248);"/>
		<g>
			<g>
				<path d="M 640.200012 452.200012 H 643.200012 V 502.600014 H 640.200012 V 452.200012 Z" class="st5" style="fill: rgb(108, 157, 180);"/>
				<path d="M 665.099976 452.200012 H 668.099976 V 502.600014 H 665.099976 V 452.200012 Z" class="st5" style="fill: rgb(108, 157, 180);"/>
			</g>
			<g>
				<path d="M 732 452.200012 H 735 V 502.600014 H 732 V 452.200012 Z" class="st5" style="fill: rgb(108, 157, 180);"/>
				<path d="M 756.900024 452.200012 H 759.900024 V 502.600014 H 756.900024 V 452.200012 Z" class="st5" style="fill: rgb(108, 157, 180);"/>
			</g>
		</g>
	</g>
</svg>